<?xml version="1.0" standalone="no"?>
<!DOCTYPE svg PUBLIC "-//W3C//DTD SVG 20010904//EN"
 "http://www.w3.org/TR/2001/REC-SVG-20010904/DTD/svg10.dtd">
<svg version="1.0" xmlns="http://www.w3.org/2000/svg"
 width="400.000000pt" height="400.000000pt" viewBox="0 0 400.000000 400.000000"
 preserveAspectRatio="xMidYMid meet">
<metadata>
Created by potrace 1.14, written by Peter Selinger 2001-2017
</metadata>
<g transform="translate(0.000000,400.000000) scale(0.100000,-0.100000)"
fill="#000000" stroke="none">
<path d="M2120 3605 c-212 -28 -358 -79 -548 -190 -54 -32 -166 -126 -214
-180 -97 -108 -165 -238 -204 -390 -23 -92 -28 -132 -28 -240 -1 -77 5 -156
13 -193 8 -34 11 -65 8 -68 -9 -9 -98 47 -104 65 -22 74 -84 131 -144 131 -18
0 -40 -4 -47 -8 -7 -5 -37 0 -70 11 -127 43 -193 33 -227 -34 -15 -28 -15 -33
2 -61 10 -18 38 -42 63 -55 31 -17 44 -30 41 -41 -13 -62 -12 -122 4 -145 34
-53 181 -78 235 -40 24 17 24 17 126 -91 92 -97 149 -166 290 -351 83 -110 82
-95 24 -268 -54 -160 -91 -303 -111 -425 -11 -68 -15 -76 -58 -114 -25 -22
-62 -51 -81 -63 -34 -21 -164 -135 -283 -247 -54 -51 -58 -58 -55 -94 2 -31 9
-42 38 -59 31 -17 52 -20 170 -20 150 0 191 13 218 68 10 21 20 27 45 27 18 0
106 19 197 41 l165 41 475 14 c261 7 504 16 540 19 101 9 146 -27 130 -102
-17 -72 16 -100 127 -113 117 -13 188 4 213 49 15 29 12 45 -15 85 l-25 38 25
30 c37 44 71 114 85 178 24 111 -24 222 -111 257 -38 15 -47 30 -31 49 23 25
76 179 117 339 18 70 53 263 66 368 l11 89 60 66 c130 146 208 312 226 487 13
119 -2 346 -28 425 -121 370 -398 599 -845 699 -138 31 -327 37 -485 16z m510
-78 c340 -76 578 -248 715 -517 16 -30 32 -68 36 -85 44 -165 49 -194 49 -320
0 -126 -4 -154 -49 -320 -12 -45 -48 -111 -104 -192 -52 -76 -83 -95 -73 -46
12 64 17 118 26 305 10 187 9 199 -10 251 -46 122 -147 179 -259 147 -33 -9
-37 -7 -87 40 -57 54 -70 58 -113 35 -51 -26 -54 -69 -10 -158 17 -34 38 -70
46 -79 14 -16 13 -20 -11 -48 -58 -69 -13 -159 89 -180 27 -5 30 -9 27 -40 -1
-19 -7 -55 -13 -80 -5 -25 -18 -103 -30 -175 -28 -178 -58 -297 -79 -316 -45
-39 -281 -74 -490 -73 -570 5 -943 232 -1081 659 -18 58 -23 99 -27 236 -4
149 -2 174 19 250 72 271 236 472 488 599 118 59 193 85 316 108 159 31 154
31 340 27 137 -2 192 -8 285 -28z m225 -791 c19 -26 24 -40 19 -64 -11 -55 4
-101 39 -122 37 -23 65 -25 102 -8 40 18 28 43 -23 44 -73 3 -94 43 -47 89 18
19 35 25 70 25 57 0 96 -20 132 -67 l28 -37 -2 -190 c-2 -187 -18 -384 -49
-596 -18 -130 -68 -376 -90 -450 -20 -69 -93 -252 -104 -264 -4 -4 -23 -11
-42 -15 -24 -5 -34 -13 -36 -29 -3 -21 0 -22 63 -22 76 0 135 -24 152 -63 48
-105 -1 -280 -93 -338 -42 -26 -44 -53 -5 -69 16 -6 37 -20 46 -29 14 -17 14
-19 -1 -32 -18 -15 -157 -19 -206 -6 -26 7 -27 10 -27 66 1 51 -3 65 -27 94
-39 50 -90 63 -191 49 -104 -15 -254 -21 -631 -27 -303 -5 -318 -6 -455 -36
-78 -17 -173 -37 -212 -45 -111 -22 -114 -23 -129 -52 -22 -43 -55 -52 -180
-52 -127 0 -160 11 -135 47 39 54 338 314 442 384 5 4 13 41 17 83 10 89 31
176 70 301 15 50 35 115 44 145 9 30 35 101 58 157 22 56 38 108 35 117 -9 24
-36 19 -49 -9 -15 -34 -32 -31 -56 8 -94 157 -414 517 -459 517 -9 0 -31 -9
-50 -21 -27 -17 -43 -20 -78 -15 -50 8 -95 39 -95 66 0 23 19 69 38 92 22 27
10 40 -59 67 -48 20 -65 32 -67 48 -5 32 27 45 82 33 79 -18 96 -29 96 -67 0
-73 99 -123 144 -74 24 27 12 41 -35 41 -27 0 -42 5 -46 16 -17 46 54 70 99
34 20 -15 28 -31 30 -63 3 -36 7 -43 33 -52 17 -5 60 -29 98 -52 57 -37 71
-51 91 -96 41 -93 97 -170 191 -263 127 -125 258 -199 453 -253 192 -53 213
-56 457 -56 206 1 240 3 325 24 52 13 105 25 116 28 19 4 21 1 17 -21 -7 -34
24 -48 44 -21 34 48 127 474 157 722 8 61 1 68 -62 64 -34 -2 -50 3 -68 20
-32 30 -30 39 13 76 43 36 48 16 -37 160 -23 39 -39 77 -35 82 13 23 54 11 80
-23z"/>
<path d="M1996 2831 c-14 -27 -14 -31 5 -55 23 -30 45 -33 77 -10 43 30 16 94
-41 94 -19 0 -31 -8 -41 -29z"/>
<path d="M2454 2835 c-19 -29 -12 -57 20 -74 30 -17 59 -7 76 24 31 58 -59
106 -96 50z"/>
<path d="M2572 2573 c-5 -10 -15 -37 -22 -61 -37 -119 -232 -186 -397 -137
-66 19 -139 83 -147 128 -9 46 -27 70 -49 61 -57 -22 34 -177 129 -220 168
-75 362 -43 466 76 52 60 79 130 58 155 -16 20 -27 19 -38 -2z"/>
</g>
</svg>
